<svg width="1134" height="986" viewBox="0 0 1134 986" fill="none" xmlns="http://www.w3.org/2000/svg">
<g filter="url(#filter0_d_164566_42)">
<path d="M1039 478.5C1039 735.589 830.589 944 573.5 944C316.411 944 108 735.589 108 478.5C108 221.411 316.411 13 573.5 13C830.589 13 1039 221.411 1039 478.5Z" fill="#00C2ED"/>
</g>
<path fill-rule="evenodd" clip-rule="evenodd" d="M988.839 381.204C977.703 388.814 965.964 399.196 943.709 419.995C937.126 426.148 928.252 435.247 917.532 446.236C892.125 472.286 856.354 508.96 816.177 542.206C787.599 565.854 756.758 587.8 725.769 603.005C694.784 618.208 663.615 626.689 634.397 623.356C611.244 620.716 579.325 628.643 542.775 643.35C506.243 658.049 465.152 679.49 423.685 703.802C340.75 752.424 256.349 812.498 203.961 852.99L203.369 852.061C255.782 811.55 340.219 751.449 423.2 702.8C464.69 678.476 505.826 657.009 542.419 642.285C578.994 627.569 611.1 619.56 634.499 622.229C663.472 625.533 694.453 617.128 725.349 601.969C756.242 586.811 787.015 564.918 815.559 541.298C855.692 508.088 891.351 471.527 916.75 445.486C927.498 434.466 936.409 425.33 943.043 419.129C965.29 398.337 977.085 387.901 988.296 380.24C998.229 373.452 1007.7 368.847 1023.54 361.144C1025.58 360.154 1027.72 359.112 1029.99 358.007L1030.4 359.044C1028.14 360.148 1026 361.189 1023.97 362.178C1008.11 369.89 998.708 374.46 988.839 381.204Z" fill="white" stroke="#A7EFFF" stroke-width="161"/>
<path fill-rule="evenodd" clip-rule="evenodd" d="M893.839 134.204C882.703 141.814 870.964 152.196 848.709 172.995C842.126 179.148 833.252 188.247 822.532 199.236C797.125 225.286 761.354 261.96 721.177 295.206C692.599 318.854 661.758 340.8 630.769 356.005C599.784 371.208 568.615 379.689 539.397 376.356C516.244 373.716 484.325 381.643 447.775 396.35C411.243 411.049 370.152 432.49 328.685 456.802C245.75 505.424 161.349 565.498 108.961 605.99L108.369 605.061C160.782 564.55 245.219 504.449 328.2 455.8C369.69 431.476 410.826 410.009 447.419 395.285C483.994 380.569 516.1 372.56 539.499 375.229C568.472 378.533 599.453 370.128 630.349 354.969C661.242 339.811 692.015 317.918 720.559 294.298C760.692 261.088 796.351 224.527 821.75 198.486C832.498 187.466 841.409 178.33 848.043 172.129C870.29 151.337 882.085 140.901 893.296 133.24C903.229 126.452 912.7 121.847 928.541 114.144C930.579 113.154 932.722 112.112 934.985 111.007L935.404 112.044C933.142 113.148 931.001 114.189 928.966 115.178C913.108 122.89 903.708 127.46 893.839 134.204Z" fill="white" stroke="#A7EFFF" stroke-width="161"/>
<g filter="url(#filter1_d_164566_42)">
<path d="M483.439 149.369C483.439 128.601 491.496 111.055 507.609 96.7324C524.081 82.4095 541.805 75.248 560.783 75.248H577.971C583.342 76.3223 587.818 76.8594 591.398 76.8594C608.586 76.8594 623.804 84.5579 637.053 99.9551C650.301 115.352 656.926 130.033 656.926 143.998V157.963C656.21 161.544 655.852 164.229 655.852 166.02C655.852 181.059 647.437 195.74 630.607 210.062C613.778 224.385 595.158 231.547 574.748 231.547H558.098C538.046 231.547 520.679 225.281 505.998 212.748C491.675 199.857 484.514 185.176 484.514 168.705L483.439 163.334V149.369ZM585.49 848.148H534.465C486.841 848.148 458.195 846.895 448.527 844.389C439.217 841.524 434.562 833.826 434.562 821.293C434.562 808.402 443.514 793.005 461.418 775.102C479.322 757.198 490.601 739.294 495.256 721.391C499.911 703.129 502.238 656.042 502.238 580.131C502.238 503.861 500.269 458.923 496.33 445.316C492.391 431.71 480.038 420.072 459.27 410.404C438.859 400.378 428.654 388.562 428.654 374.955C428.654 360.99 438.143 350.785 457.121 344.34C500.09 330.017 547.535 322.855 599.455 322.855H607.512C628.28 322.855 640.275 331.628 643.498 349.174C645.288 359.2 646.184 419.356 646.184 529.643C646.184 639.571 648.511 704.024 653.166 723.002C658.179 741.622 670.712 761.495 690.764 782.621C710.816 803.747 720.842 816.996 720.842 822.367V828.812C720.842 841.703 675.725 848.148 585.49 848.148Z" fill="white"/>
</g>
<g filter="url(#filter2_d_164566_42)">
<path fill-rule="evenodd" clip-rule="evenodd" d="M504.308 92.9773L504.328 92.9594C521.565 77.9715 540.42 70.248 560.783 70.248H578.466L578.951 70.3451C584.15 71.3849 588.271 71.8594 591.398 71.8594C610.311 71.8594 626.835 80.4141 640.843 96.6939C654.525 112.595 661.926 128.394 661.926 143.998V158.458L661.829 158.943C661.125 162.462 660.852 164.746 660.852 166.02C660.852 183.106 651.258 199.053 633.848 213.87C616.195 228.894 596.447 236.547 574.748 236.547H558.098C536.906 236.547 518.375 229.888 502.752 216.551L502.702 216.508L502.653 216.465C487.614 202.93 479.662 187.135 479.516 169.21L478.439 163.829V149.369C478.439 127.112 487.153 108.226 504.288 92.9954L504.308 92.9773ZM484.514 168.705C484.514 185.176 491.675 199.857 505.998 212.748C520.679 225.281 538.046 231.547 558.098 231.547H574.748C595.158 231.547 613.778 224.385 630.607 210.062C647.437 195.74 655.852 181.059 655.852 166.02C655.852 164.229 656.21 161.544 656.926 157.963V143.998C656.926 130.033 650.301 115.352 637.053 99.9551C623.804 84.5579 608.586 76.8594 591.398 76.8594C587.818 76.8594 583.342 76.3223 577.971 75.248H560.783C541.805 75.248 524.081 82.4095 507.609 96.7324C491.496 111.055 483.439 128.601 483.439 149.369V163.334L484.514 168.705ZM447.164 849.201L447.057 849.168C441.334 847.407 436.793 844.044 433.775 839.053C430.825 834.175 429.562 828.129 429.562 821.293C429.562 806.269 439.833 789.616 457.882 771.566C475.375 754.073 486.048 736.922 490.414 720.145C492.601 711.554 494.335 695.682 495.499 672.133C496.657 648.705 497.238 618.047 497.238 580.131C497.238 542.027 496.746 511.807 495.766 489.444C494.776 466.846 493.3 452.832 491.527 446.707C488.182 435.149 477.409 424.364 457.159 414.937L457.112 414.915L457.065 414.892C436.17 404.628 423.654 391.531 423.654 374.955C423.654 366.712 426.503 359.453 432.109 353.423C437.611 347.506 445.562 342.985 455.513 339.605L455.527 339.601L455.54 339.596C499.087 325.081 547.074 317.855 599.455 317.855H607.512C618.546 317.855 627.901 320.181 635.036 325.399C642.266 330.687 646.623 338.508 648.416 348.271L648.418 348.283L648.42 348.295C648.941 351.211 649.337 357.223 649.669 365.902C650.007 374.731 650.288 386.681 650.512 401.736C650.96 431.852 651.184 474.491 651.184 529.643C651.184 584.582 651.765 628.109 652.926 660.248C654.092 692.534 655.833 712.833 658.009 721.757C662.733 739.252 674.663 758.395 694.39 779.179C704.464 789.793 712.131 798.542 717.309 805.385C719.894 808.8 721.941 811.848 723.364 814.491C724.699 816.97 725.842 819.725 725.842 822.367V828.812C725.842 835.394 720.127 839.393 714.352 841.868C708.101 844.547 699.121 846.634 687.711 848.264C664.789 851.539 630.662 853.148 585.49 853.148H534.465C510.621 853.148 491.472 852.835 477.044 852.204C462.794 851.58 452.696 850.635 447.273 849.229L447.164 849.201ZM653.166 723.002C648.511 704.024 646.184 639.571 646.184 529.643C646.184 419.356 645.288 359.2 643.498 349.174C640.275 331.628 628.28 322.855 607.512 322.855H599.455C547.535 322.855 500.09 330.017 457.121 344.34C438.143 350.785 428.654 360.99 428.654 374.955C428.654 388.562 438.859 400.378 459.27 410.404C480.038 420.072 492.391 431.71 496.33 445.316C500.269 458.923 502.238 503.861 502.238 580.131C502.238 656.042 499.911 703.129 495.256 721.391C490.601 739.294 479.322 757.198 461.418 775.102C443.514 793.005 434.562 808.402 434.562 821.293C434.562 833.826 439.217 841.524 448.527 844.389C458.195 846.895 486.841 848.148 534.465 848.148H585.49C675.725 848.148 720.842 841.703 720.842 828.812V822.367C720.842 816.996 710.816 803.747 690.764 782.621C670.712 761.495 658.179 741.622 653.166 723.002Z" fill="#696969"/>
</g>
<defs>
<filter id="filter0_d_164566_42" x="104.4" y="13" width="970.2" height="972.6" filterUnits="userSpaceOnUse" color-interpolation-filters="sRGB">
<feFlood flood-opacity="0" result="BackgroundImageFix"/>
<feColorMatrix in="SourceAlpha" type="matrix" values="0 0 0 0 0 0 0 0 0 0 0 0 0 0 0 0 0 0 127 0" result="hardAlpha"/>
<feOffset dx="16" dy="22"/>
<feGaussianBlur stdDeviation="9.8"/>
<feComposite in2="hardAlpha" operator="out"/>
<feColorMatrix type="matrix" values="0 0 0 0 0 0 0 0 0 0 0 0 0 0 0 0 0 0 0.25 0"/>
<feBlend mode="normal" in2="BackgroundImageFix" result="effect1_dropShadow_164566_42"/>
<feBlend mode="normal" in="SourceGraphic" in2="effect1_dropShadow_164566_42" result="shape"/>
</filter>
<filter id="filter1_d_164566_42" x="428.654" y="75.248" width="315.488" height="800.2" filterUnits="userSpaceOnUse" color-interpolation-filters="sRGB">
<feFlood flood-opacity="0" result="BackgroundImageFix"/>
<feColorMatrix in="SourceAlpha" type="matrix" values="0 0 0 0 0 0 0 0 0 0 0 0 0 0 0 0 0 0 127 0" result="hardAlpha"/>
<feOffset dx="13" dy="17"/>
<feGaussianBlur stdDeviation="5.15"/>
<feComposite in2="hardAlpha" operator="out"/>
<feColorMatrix type="matrix" values="0 0 0 0 0 0 0 0 0 0 0 0 0 0 0 0 0 0 0.25 0"/>
<feBlend mode="normal" in2="BackgroundImageFix" result="effect1_dropShadow_164566_42"/>
<feBlend mode="normal" in="SourceGraphic" in2="effect1_dropShadow_164566_42" result="shape"/>
</filter>
<filter id="filter2_d_164566_42" x="423.654" y="70.248" width="325.488" height="810.2" filterUnits="userSpaceOnUse" color-interpolation-filters="sRGB">
<feFlood flood-opacity="0" result="BackgroundImageFix"/>
<feColorMatrix in="SourceAlpha" type="matrix" values="0 0 0 0 0 0 0 0 0 0 0 0 0 0 0 0 0 0 127 0" result="hardAlpha"/>
<feOffset dx="13" dy="17"/>
<feGaussianBlur stdDeviation="5.15"/>
<feComposite in2="hardAlpha" operator="out"/>
<feColorMatrix type="matrix" values="0 0 0 0 0 0 0 0 0 0 0 0 0 0 0 0 0 0 0.25 0"/>
<feBlend mode="normal" in2="BackgroundImageFix" result="effect1_dropShadow_164566_42"/>
<feBlend mode="normal" in="SourceGraphic" in2="effect1_dropShadow_164566_42" result="shape"/>
</filter>
</defs>
</svg>
